<svg xmlns="http://www.w3.org/2000/svg" version="1.1" xmlns:xlink="http://www.w3.org/1999/xlink" xmlns:svgjs="http://svgjs.dev/svgjs" width="1500" height="1500" viewBox="0 0 1500 1500"><rect width="1500" height="1500" fill="#ffffff"></rect><g transform="matrix(0.6666666666666666,0,0,0.6666666666666666,249.39393939393938,519.7457188067149)"><svg viewBox="0 0 396 182" data-background-color="#ffffff" preserveAspectRatio="xMidYMid meet" height="689" width="1500" xmlns="http://www.w3.org/2000/svg" xmlns:xlink="http://www.w3.org/1999/xlink"><g id="tight-bounds" transform="matrix(1,0,0,1,0.2400000000000091,0.23282839733938943)"><svg viewBox="0 0 395.52 181.53434320532122" height="181.53434320532122" width="395.52"><g><svg viewBox="0 0 395.52 181.53434320532122" height="181.53434320532122" width="395.52"><g transform="matrix(1,0,0,1,0,108.73704024404559)"><svg viewBox="0 0 395.52 72.79730296127563" height="72.79730296127563" width="395.52"><g id="textblocktransform"><svg viewBox="0 0 395.52 72.79730296127563" height="72.79730296127563" width="395.52" id="textblock"><g><svg viewBox="0 0 395.52 72.79730296127563" height="72.79730296127563" width="395.52"><g transform="matrix(1,0,0,1,0,0)"><svg width="395.52" viewBox="3 -39.65 219.48 40.4" height="72.79730296127563" data-palette-color="#676867"><path d="M24.6-34.55L24.6 0 16.5 0 7.75-28.3Q8.15-24.7 8.38-21.68 8.6-18.65 8.6-14.5L8.6-14.5 8.6 0 3 0 3-34.55 11.05-34.55 19.8-6.25Q19.5-8.05 19.23-11.35 18.95-14.65 18.95-18.05L18.95-18.05 18.95-34.55 24.6-34.55ZM48.6-26.45L48.6 0 43.25 0 42.95-3.35Q41.7-1.3 40.15-0.28 38.6 0.75 36.55 0.75L36.55 0.75Q33.65 0.75 31.97-1.3 30.3-3.35 30.3-6.65L30.3-6.65 30.3-26.45 36.45-26.45 36.45-7Q36.45-3.9 38.55-3.9L38.55-3.9Q39.75-3.9 40.7-4.83 41.65-5.75 42.45-7.45L42.45-7.45 42.45-26.45 48.6-26.45ZM65.45-5L67.6-1.2Q65.15 0.75 61.85 0.75L61.85 0.75Q58.4 0.75 56.6-1.23 54.8-3.2 54.8-6.6L54.8-6.6 54.8-22 51.7-22 51.7-26.45 54.8-26.45 54.8-32.3 60.95-33.05 60.95-26.45 65.95-26.45 65.35-22 60.95-22 60.95-6.6Q60.95-4.2 63-4.2L63-4.2Q63.65-4.2 64.15-4.38 64.65-4.55 65.45-5L65.45-5ZM81.79-27.1Q82.94-27.1 83.84-26.75L83.84-26.75 82.84-20.85Q81.84-21.1 80.99-21.1L80.99-21.1Q79.09-21.1 77.99-19.45 76.89-17.8 76.29-14.55L76.29-14.55 76.29 0 70.14 0 70.14-26.45 75.49-26.45 75.94-21.85Q77.79-27.1 81.79-27.1L81.79-27.1ZM86.69-26.45L92.84-26.45 92.84 0 86.69 0 86.69-26.45ZM89.74-39.65Q91.39-39.65 92.42-38.6 93.44-37.55 93.44-35.9L93.44-35.9Q93.44-34.3 92.42-33.25 91.39-32.2 89.74-32.2L89.74-32.2Q88.09-32.2 87.07-33.25 86.04-34.3 86.04-35.9L86.04-35.9Q86.04-37.55 87.07-38.6 88.09-39.65 89.74-39.65L89.74-39.65ZM107.44-35.25Q110.44-35.25 112.74-34.2 115.04-33.15 116.99-31.05L116.99-31.05 114.04-27.65Q112.49-29.05 111.01-29.75 109.54-30.45 107.89-30.45L107.89-30.45Q105.99-30.45 104.89-29.28 103.79-28.1 103.79-26.2L103.79-26.2Q103.79-24.3 104.94-23.1 106.09-21.9 109.44-20.6L109.44-20.6Q113.74-18.85 115.76-16.5 117.79-14.15 117.79-9.85L117.79-9.85Q117.79-6.9 116.44-4.48 115.09-2.05 112.56-0.65 110.04 0.75 106.69 0.75L106.69 0.75Q103.24 0.75 100.69-0.48 98.14-1.7 96.04-3.95L96.04-3.95 99.24-7.45Q101.04-5.85 102.69-5 104.34-4.15 106.29-4.15L106.29-4.15Q108.59-4.15 109.86-5.58 111.14-7 111.14-9.45L111.14-9.45Q111.14-11.6 110.01-12.98 108.89-14.35 105.84-15.5L105.84-15.5Q101.24-17.35 99.21-19.75 97.19-22.15 97.19-25.75L97.19-25.75Q97.19-28.5 98.51-30.65 99.84-32.8 102.19-34.02 104.54-35.25 107.44-35.25L107.44-35.25ZM140.64-13.85Q140.64-13.4 140.49-11.3L140.49-11.3 126.84-11.3Q127.04-7.2 128.26-5.58 129.49-3.95 131.74-3.95L131.74-3.95Q133.29-3.95 134.54-4.48 135.79-5 137.24-6.15L137.24-6.15 139.79-2.65Q136.29 0.75 131.39 0.75L131.39 0.75Q126.19 0.75 123.41-2.85 120.64-6.45 120.64-13L120.64-13Q120.64-19.55 123.29-23.35 125.94-27.15 130.79-27.15L130.79-27.15Q135.44-27.15 138.04-23.78 140.64-20.4 140.64-13.85L140.64-13.85ZM134.64-15.3L134.64-15.65Q134.64-19.4 133.74-21.13 132.84-22.85 130.84-22.85L130.84-22.85Q128.99-22.85 128.01-21.18 127.04-19.5 126.84-15.3L126.84-15.3 134.64-15.3ZM161.83-6.4Q161.83-5.1 162.18-4.48 162.53-3.85 163.33-3.45L163.33-3.45 162.08 0.65Q160.03 0.4 158.81-0.45 157.58-1.3 156.98-3.05L156.98-3.05Q154.68 0.75 150.53 0.75L150.53 0.75Q147.23 0.75 145.28-1.48 143.33-3.7 143.33-7.4L143.33-7.4Q143.33-11.7 146.01-13.95 148.68-16.2 153.78-16.2L153.78-16.2 155.83-16.2 155.83-18.05Q155.83-20.55 154.96-21.58 154.08-22.6 152.13-22.6L152.13-22.6Q149.78-22.6 146.28-21.3L146.28-21.3 144.88-25.3Q146.88-26.2 149.03-26.68 151.18-27.15 153.13-27.15L153.13-27.15Q161.83-27.15 161.83-18.35L161.83-18.35 161.83-6.4ZM152.18-3.7Q154.58-3.7 155.83-7L155.83-7 155.83-12.55 154.38-12.55Q151.83-12.55 150.66-11.4 149.48-10.25 149.48-7.85L149.48-7.85Q149.48-5.8 150.18-4.75 150.88-3.7 152.18-3.7L152.18-3.7ZM179.28-27.1Q180.43-27.1 181.33-26.75L181.33-26.75 180.33-20.85Q179.33-21.1 178.48-21.1L178.48-21.1Q176.58-21.1 175.48-19.45 174.38-17.8 173.78-14.55L173.78-14.55 173.78 0 167.63 0 167.63-26.45 172.98-26.45 173.43-21.85Q175.28-27.1 179.28-27.1L179.28-27.1ZM193.68-27.15Q195.83-27.15 197.58-26.43 199.33-25.7 200.93-24.15L200.93-24.15 198.28-20.65Q197.18-21.55 196.2-21.98 195.23-22.4 194.08-22.4L194.08-22.4Q191.83-22.4 190.68-20.28 189.53-18.15 189.53-13.1L189.53-13.1Q189.53-8.2 190.7-6.2 191.88-4.2 194.08-4.2L194.08-4.2Q195.18-4.2 196.08-4.6 196.98-5 198.18-5.85L198.18-5.85 200.93-2.3Q197.73 0.75 193.78 0.75L193.78 0.75Q188.68 0.75 185.85-2.73 183.03-6.2 183.03-13L183.03-13Q183.03-17.4 184.33-20.6 185.63-23.8 188.05-25.48 190.48-27.15 193.68-27.15L193.68-27.15ZM216.33-27.15Q219.18-27.15 220.83-25.1 222.48-23.05 222.48-19.6L222.48-19.6 222.48 0 216.33 0 216.33-18.9Q216.33-20.8 215.8-21.63 215.28-22.45 214.28-22.45L214.28-22.45Q212.18-22.45 210.13-18.5L210.13-18.5 210.13 0 203.98 0 203.98-37 210.13-37.65 210.13-23.3Q211.38-25.25 212.85-26.2 214.33-27.15 216.33-27.15L216.33-27.15Z" opacity="1" transform="matrix(1,0,0,1,0,0)" fill="#000000" class="wordmark-text-0" data-fill-palette-color="primary" id="text-0"></path></svg></g></svg></g></svg></g></svg></g><g transform="matrix(1,0,0,1,160.73487302662636,0)"><svg viewBox="0 0 74.05025394674728 91.55134415015948" height="91.55134415015948" width="74.05025394674728"><g><svg xmlns="http://www.w3.org/2000/svg" xmlns:xlink="http://www.w3.org/1999/xlink" version="1.1" x="0" y="0" viewBox="52.905 4.906 406.18899999999996 502.188" enable-background="new 0 0 512 512" xml:space="preserve" height="91.55134415015948" width="74.05025394674728" class="icon-icon-0" data-fill-palette-color="accent" id="icon-0"><path d="M259.016 219.094L328.5 80.156 441.344 4.906 459.094 31.531 353.313 102.031 294.782 219.094zM366.188 147.813L351.75 176.719C365.063 184.313 372.906 193.344 372.906 203.094 372.906 226.625 327.718 246.094 268.172 250.219L238.906 298.094V250.875C237.031 250.844 235.203 250.719 233.343 250.656L200.905 353.094V248C151.983 241.25 116.905 223.781 116.905 203.094 116.905 176.594 174.218 155.094 244.905 155.094 248.389 155.094 251.655 155.375 255.061 155.469L270.811 123.969C262.311 123.469 253.717 123.094 244.905 123.094 138.874 123.094 52.905 159.375 52.905 283.094S138.874 507.094 244.905 507.094 436.905 406.813 436.905 283.094C436.906 213.063 409.344 171.094 366.188 147.813" fill="#000000" data-fill-palette-color="accent"></path></svg></g></svg></g><g></g></svg></g><defs></defs></svg><rect width="395.52" height="181.53434320532122" fill="none" stroke="none" visibility="hidden"></rect></g></svg></g></svg>